<svg width="1371" height="389" viewBox="0 0 1371 389" fill="none" xmlns="http://www.w3.org/2000/svg">
<path d="M0 387.34V115.095H1.58396L27.9174 233.511V387.34H0ZM0 50.9075V0H22.7695L88.108 294.378V387.34H74.8423L0 50.9075ZM60.1906 111.775V0H88.108V230.191H86.524L60.1906 111.775Z" fill="white"/>
<path d="M102.712 387.34V0H130.63V387.34H102.712Z" fill="white"/>
<path d="M140.878 299.912L166.023 275.011C166.023 284.234 166.947 292.349 168.795 299.358C170.643 306.367 172.491 310.979 174.339 313.192L177.111 317.065V389C165.891 389 156.321 375.351 148.402 348.053C143.518 330.715 141.01 314.668 140.878 299.912ZM142.462 106.242C142.462 65.6633 148.666 35.2295 161.073 14.9403C166.749 5.34898 172.095 0.368895 177.111 0V73.0413C173.811 75.6235 171.369 82.2636 169.785 92.9616C169.257 96.2817 168.993 99.7862 168.993 103.475C168.993 118.6 173.019 131.511 181.071 142.209C182.787 144.422 185.559 147.743 189.387 152.169C195.723 159.178 200.21 164.896 202.85 169.323C213.542 187.03 220.67 205.106 224.234 223.551C226.874 237.937 228.194 253.984 228.194 271.691C228.194 305.261 223.64 334.035 214.532 358.013C206.744 378.671 197.9 389 188.001 389V317.065C193.149 315.221 196.778 307.659 198.89 294.378C199.814 288.476 200.276 282.02 200.276 275.011C200.276 256.198 195.261 240.704 185.229 228.531C183.381 226.317 180.477 223.182 176.517 219.124C171.897 214.697 168.663 211.193 166.815 208.61C155.463 193.486 148.204 173.934 145.036 149.956C143.32 137.045 142.462 122.473 142.462 106.242ZM188.001 73.0413V0C199.088 0 208.394 13.0958 215.918 39.2873C220.274 54.7809 222.518 68.799 222.65 81.3414L196.91 105.135C196.91 89.6415 194.205 79.128 188.793 73.5946C188.265 73.2257 188.001 73.0413 188.001 73.0413Z" fill="white"/>
<path d="M238.046 387.34V0H265.963V154.383H273.685V230.744H265.963V387.34H238.046ZM284.575 230.744V154.383H292.297V0H320.214V387.34H292.297V230.744H284.575Z" fill="white"/>
<path d="M332.442 387.34L357.984 65.2945H360.954L372.833 220.23L359.766 387.34H332.442ZM374.615 340.306L380.555 263.945H387.683L366.696 0H394.217L426.886 387.34H399.167L395.207 340.306H374.615Z" fill="white"/>
<path d="M436.936 387.34V115.095H438.52L464.854 233.511V387.34H436.936ZM436.936 50.9075V0H459.706L525.044 294.378V387.34H511.779L436.936 50.9075ZM497.127 111.775V0H525.044V230.191H523.461L497.127 111.775Z" fill="white"/>
<path d="M622.316 299.912L647.461 275.011C647.461 284.234 648.385 292.349 650.233 299.358C652.081 306.367 653.929 310.979 655.777 313.192L658.549 317.065V389C647.329 389 637.759 375.351 629.839 348.053C624.956 330.715 622.448 314.668 622.316 299.912ZM623.9 106.242C623.9 65.6633 630.103 35.2295 642.511 14.9403C648.187 5.34898 653.533 0.368895 658.549 0V73.0413C655.249 75.6235 652.807 82.2636 651.223 92.9616C650.695 96.2817 650.431 99.7862 650.431 103.475C650.431 118.6 654.457 131.511 662.509 142.209C664.225 144.422 666.997 147.743 670.825 152.169C677.16 159.178 681.648 164.896 684.288 169.323C694.98 187.03 702.108 205.106 705.672 223.551C708.312 237.937 709.632 253.984 709.632 271.691C709.632 305.261 705.078 334.035 695.97 358.013C688.182 378.671 679.338 389 669.439 389V317.065C674.586 315.221 678.216 307.659 680.328 294.378C681.252 288.476 681.714 282.02 681.714 275.011C681.714 256.198 676.698 240.704 666.667 228.531C664.819 226.317 661.915 223.182 657.955 219.124C653.335 214.697 650.101 211.193 648.253 208.61C636.901 193.486 629.641 173.934 626.474 149.956C624.758 137.045 623.9 122.473 623.9 106.242ZM669.439 73.0413V0C680.526 0 689.832 13.0958 697.356 39.2873C701.712 54.7809 703.956 68.799 704.088 81.3414L678.348 105.135C678.348 89.6415 675.642 79.128 670.231 73.5946C669.703 73.2257 669.439 73.0413 669.439 73.0413Z" fill="white"/>
<path d="M719.484 387.34V0H747.401V154.383H755.123V230.744H747.401V387.34H719.484ZM766.013 230.744V154.383H773.735V0H801.652V387.34H773.735V230.744H766.013Z" fill="white"/>
<path d="M815.86 387.34V0H843.778V387.34H815.86ZM854.469 229.084V159.916H857.043C865.491 159.916 870.903 150.325 873.279 131.142C873.807 126.347 874.071 121.367 874.071 116.202C874.071 96.6505 870.771 83.5548 864.171 76.9146C862.059 74.7013 859.683 73.5946 857.043 73.5946H854.469V0H858.825C876.117 0.73779 888.261 17.8914 895.256 51.4609C898.556 67.3234 900.206 85.2148 900.206 105.135C900.074 143.131 895.586 172.274 886.743 192.563C893.342 204.368 897.566 225.764 899.414 256.751C899.546 260.44 899.678 263.945 899.81 267.265L903.176 387.34H877.437L874.467 288.845C873.411 259.333 870.375 241.073 865.359 234.064C862.983 231.113 860.079 229.453 856.647 229.084H854.469Z" fill="white"/>
<path d="M913.82 387.34V0H985.891V77.468H941.738V156.043H967.279V234.064H941.738V309.319H985.891V387.34H913.82Z" fill="white"/>
<path d="M995.347 299.912L1020.49 275.011C1020.49 284.234 1021.42 292.349 1023.26 299.358C1025.11 306.367 1026.96 310.979 1028.81 313.192L1031.58 317.065V389C1020.36 389 1010.79 375.351 1002.87 348.053C997.987 330.715 995.479 314.668 995.347 299.912ZM996.931 106.242C996.931 65.6633 1003.13 35.2295 1015.54 14.9403C1021.22 5.34898 1026.56 0.368895 1031.58 0V73.0413C1028.28 75.6235 1025.84 82.2636 1024.25 92.9616C1023.73 96.2817 1023.46 99.7862 1023.46 103.475C1023.46 118.6 1027.49 131.511 1035.54 142.209C1037.26 144.422 1040.03 147.743 1043.86 152.169C1050.19 159.178 1054.68 164.896 1057.32 169.323C1068.01 187.03 1075.14 205.106 1078.7 223.551C1081.34 237.937 1082.66 253.984 1082.66 271.691C1082.66 305.261 1078.11 334.035 1069 358.013C1061.21 378.671 1052.37 389 1042.47 389V317.065C1047.62 315.221 1051.25 307.659 1053.36 294.378C1054.28 288.476 1054.75 282.02 1054.75 275.011C1054.75 256.198 1049.73 240.704 1039.7 228.531C1037.85 226.317 1034.95 223.182 1030.99 219.124C1026.37 214.697 1023.13 211.193 1021.28 208.61C1009.93 193.486 1002.67 173.934 999.505 149.956C997.789 137.045 996.931 122.473 996.931 106.242ZM1042.47 73.0413V0C1053.56 0 1062.86 13.0958 1070.39 39.2873C1074.74 54.7809 1076.99 68.799 1077.12 81.3414L1051.38 105.135C1051.38 89.6415 1048.67 79.128 1043.26 73.5946C1042.73 73.2257 1042.47 73.0413 1042.47 73.0413Z" fill="white"/>
<path d="M1087.57 76.3613V0H1173.3V76.3613H1144.39V387.34H1116.47V76.3613H1087.57Z" fill="white"/>
<path d="M1182.16 387.34V0H1210.08V154.383H1217.8V230.744H1210.08V387.34H1182.16ZM1228.69 230.744V154.383H1236.41V0H1264.33V387.34H1236.41V230.744H1228.69Z" fill="white"/>
<path d="M1276.56 387.34L1302.1 65.2945H1305.07L1316.95 220.23L1303.88 387.34H1276.56ZM1318.73 340.306L1324.67 263.945H1331.8L1310.81 0H1338.33L1371 387.34H1343.28L1339.32 340.306H1318.73Z" fill="white"/>
</svg>
